:FULLY-SPECIFIED
:FORCE-ALL-JOINTS-BE-3DOF
:DEGREES
1937
root 6.01397 13.7074 28.065 -26.0617 69.8252 -30.3149
lfemur -61.9652 13.1792 -6.82143
ltibia 68.4853 -0 0
lfoot -4.78419 -0.49904 -0.0772756
ltoes -32.6973 0 0
rfemur -3.22013 -5.75891 17.6363
rtibia 60.923 -0 0
rfoot -25.2474 -29.604 0.0509836
rtoes -27.1476 0 0
lowerback 12.8587 4.66247 4.53433
upperback -0.829057 7.28351 3.60721
thorax -8.01738 3.45905 -0.0906555
lowerneck -0.376247 14.9882 7.11067
upperneck 5.49274 20.426 -7.22738
head 3.51505 10.1708 -2.66778
lclavicle -7.94508e-16 -2.0037e-14 2.62626e-30
lhumerus 63.5907 -25.0024 58.4079
lradius 39.2757 -0 0
lwrist -2.63175 0 0
lhand -14.5116 34.5298 -0.0277045
lfingers 7.12502 -0 0
lthumb 11.6354 64.1796 -0.0278961
rclavicle -7.94508e-16 -2.0037e-14 2.62626e-30
rhumerus -45.0687 22.9967 -78.1234
rradius 93.7193 -0 0
rwrist -38.2462 0 0
rhand -13.4265 -43.3931 0.0273257
rfingers 7.12502 -0 0
rthumb 12.6803 -72.9619 0.0331651
1938
root 5.86496 13.7219 28.1002 -27.8606 70.992 -32.1696
lfemur -62.0843 13.1282 -7.6663
ltibia 68.2198 -0 0
lfoot -4.94653 -0.157455 -0.0908201
ltoes -32.6379 0 0
rfemur -3.66066 -5.77386 17.9929
rtibia 61.0228 -0 0
rfoot -25.4643 -29.7727 0.0599126
rtoes -27.129 0 0
lowerback 12.932 4.52973 4.59715
upperback -0.809661 7.12762 3.64071
thorax -8.04024 3.38279 -0.0618688
lowerneck -0.413704 14.9298 7.06984
upperneck 5.39212 20.3431 -7.27864
head 3.48212 10.1283 -2.68452
lclavicle 5.87484e-16 -2.14025e-14 3.08605e-30
lhumerus 64.0557 -25.63 57.4586
lradius 41.5312 -0 0
lwrist -2.10323 0 0
lhand -14.6506 34.673 -0.0325556
lfingers 7.12502 -0 0
lthumb 11.5013 64.329 -0.0327809
rclavicle 5.87484e-16 -2.14025e-14 3.08605e-30
rhumerus -44.832 23.6858 -78.1254
rradius 94.0259 -0 0
rwrist -38.6794 0 0
rhand -13.172 -43.316 0.0321113
rfingers 7.12502 -0 0
rthumb 12.9252 -72.8647 0.0389733
1939
root 5.70549 13.7373 28.1378 -30.0465 72.2169 -34.4149
lfemur -62.2108 13.0717 -8.57015
ltibia 67.9357 -0 0
lfoot -5.12028 0.208004 -0.104238
ltoes -32.5744 0 0
rfemur -4.13233 -5.78684 18.3748
rtibia 61.1295 -0 0
rfoot -25.6965 -29.9533 0.068761
rtoes -27.1092 0 0
lowerback 13.0103 4.38758 4.66418
upperback -0.789012 6.96077 3.67649
thorax -8.06475 3.30119 -0.03103
lowerneck -0.453732 14.8674 7.02619
upperneck 5.28459 20.2543 -7.33328
head 3.4469 10.0829 -2.70242
lclavicle 2.06649e-15 -2.28638e-14 3.54162e-30
lhumerus 64.5688 -26.2937 56.4309
lradius 43.945 -0 0
lwrist -1.53748 0 0
lhand -14.7994 34.8262 -0.0373627
lfingers 7.12502 -0 0
lthumb 11.3578 64.4889 -0.0376212
rclavicle 2.06649e-15 -2.28638e-14 3.54162e-30
rhumerus -44.5772 24.4232 -78.124
rradius 94.3539 -0 0
rwrist -39.143 0 0
rhand -12.8997 -43.2335 0.0368536
rfingers 7.12502 -0 0
rthumb 13.1874 -72.7607 0.044729
1940
root 5.53655 13.7537 28.1778 -32.7132 73.4817 -37.1443
lfemur -62.3439 13.0098 -9.52727
ltibia 67.6348 -0 0
lfoot -5.30444 0.595193 -0.117242
ltoes -32.5071 0 0
rfemur -4.63198 -5.79718 18.7795
rtibia 61.2426 -0 0
rfoot -25.9424 -30.1446 0.0773363
rtoes -27.0881 0 0
lowerback 13.093 4.23689 4.73497
upperback -0.767259 6.78401 3.71432
thorax -8.09075 3.21476 0.00167455
lowerneck -0.496069 14.8011 6.98001
upperneck 5.17084 20.1602 -7.39094
head 3.40961 10.0348 -2.72134
lclavicle 3.63326e-15 -2.44119e-14 3.98308e-30
lhumerus 65.1301 -26.9876 55.3284
lradius 46.5021 -0 0
lwrist -0.938274 0 0
lhand -14.957 34.9885 -0.0420212
lfingers 7.12502 -0 0
lthumb 11.2057 64.6583 -0.0423119
rclavicle 3.63326e-15 -2.44119e-14 3.98308e-30
rhumerus -44.3057 25.2045 -78.1187
rradius 94.7014 -0 0
rwrist -39.6341 0 0
rhand -12.6113 -43.146 0.0414495
rfingers 7.12502 -0 0
rthumb 13.4651 -72.6505 0.050307
1941
root 5.35915 13.771 28.2197 -35.9844 74.7645 -40.4813
lfemur -62.4824 12.9424 -10.5319
ltibia 67.3188 -0 0
lfoot -5.49791 1.00183 -0.129559
ltoes -32.4364 0 0
rfemur -5.15675 -5.80425 19.2044
rtibia 61.3613 -0 0
rfoot -26.2008 -30.3455 0.0854572
rtoes -27.066 0 0
lowerback 13.1796 4.07854 4.80905
upperback -0.744551 6.59838 3.75395
thorax -8.11811 3.12402 0.0360579
lowerneck -0.540455 14.7316 6.93159
upperneck 5.05157 20.0611 -7.45125
head 3.37048 9.98424 -2.74117
lclavicle 5.27856e-15 -2.60375e-14 4.4011e-30
lhumerus 65.7394 -27.7058 54.155
lradius 49.1873 -0 0
lwrist -0.309032 0 0
lhand -15.1225 35.159 -0.0464326
lfingers 7.12502 -0 0
lthumb 11.0461 64.8362 -0.0467539
rclavicle 5.27856e-15 -2.60375e-14 4.4011e-30
rhumerus -44.0185 26.0248 -78.1085
rradius 95.0663 -0 0
rwrist -40.15 0 0
rhand -12.3083 -43.0542 0.0458019
rfingers 7.12502 -0 0
rthumb 13.7568 -72.5347 0.0555894
1942
root 5.17428 13.7889 28.2633 -40.0212 76.0381 -44.5863
lfemur -62.6254 12.8697 -11.5785
ltibia 66.9894 -0 0
lfoot -5.69962 1.42565 -0.140933
ltoes -32.3627 0 0
rfemur -5.70367 -5.80751 19.6473
rtibia 61.4851 -0 0
rfoot -26.4701 -30.555 0.0929561
rtoes -27.043 0 0
lowerback 13.2697 3.91341 4.88598
upperback -0.721033 6.4049 3.79516
thorax -8.14668 3.02947 0.0719327
lowerneck -0.586631 14.659 6.88121
upperneck 4.92747 19.9578 -7.51381
head 3.32972 9.93155 -2.7618
lclavicle 6.99315e-15 -2.77317e-14 4.78705e-30
lhumerus 66.3964 -28.4421 52.9147
lradius 51.9856 -0 0
lwrist 0.346711 0 0
lhand -15.295 35.3366 -0.0505052
lfingers 7.12502 -0 0
lthumb 10.8797 65.0216 -0.0508547
rclavicle 6.99315e-15 -2.77317e-14 4.78705e-30
rhumerus -43.7169 26.8796 -78.093
rradius 95.4468 -0 0
rwrist -40.6874 0 0
rhand -11.9926 -42.9585 0.0498209
rfingers 7.12502 -0 0
rthumb 14.0607 -72.414 0.0604671
1943
root 4.98293 13.8075 28.3085 -45.0258 77.2683 -49.6614
lfemur -62.7718 12.7918 -12.6611
ltibia 66.6485 -0 0
lfoot -5.90851 1.86441 -0.151135
ltoes -32.2865 0 0
rfemur -6.26975 -5.80644 20.1058
rtibia 61.6131 -0 0
rfoot -26.7488 -30.7718 0.099681
rtoes -27.0192 0 0
lowerback 13.3627 3.74236 4.96532
upperback -0.696848 6.20463 3.83771
thorax -8.17631 2.93163 0.109111
lowerneck -0.634339 14.5839 6.82914
upperneck 4.79923 19.8508 -7.57828
head 3.28756 9.87699 -2.7831
lclavicle 8.7678e-15 -2.94851e-14 5.13313e-30
lhumerus 67.1003 -29.1907 51.6118
lradius 54.882 -0 0
lwrist 1.02542 0 0
lhand -15.4735 35.5205 -0.054158
lfingers 7.12502 -0 0
lthumb 10.7074 65.2135 -0.0545328
rclavicle 8.7678e-15 -2.94851e-14 5.13313e-30
rhumerus -43.402 27.7643 -78.0714
rradius 95.8404 -0 0
rwrist -41.2437 0 0
rhand -11.6658 -42.8593 0.053425
rfingers 7.12502 -0 0
rthumb 14.3753 -72.2891 0.0648413
1944
root 4.7861 13.8267 28.355 -51.2345 78.4104 -55.9424
lfemur -62.9209 12.7089 -13.7742
ltibia 66.2979 -0 0
lfoot -6.12343 2.31571 -0.159959
ltoes -32.2081 0 0
rfemur -6.85201 -5.80065 20.5773
rtibia 61.7449 -0 0
rfoot -27.0355 -30.9949 0.105498
rtoes -26.9947 0 0
lowerback 13.458 3.56628 5.04662
upperback -0.672135 5.99861 3.88138
thorax -8.20685 2.831 0.147403
lowerneck -0.683322 14.5066 6.77567
upperneck 4.66755 19.7405 -7.64428
head 3.24422 9.82085 -2.80497
lclavicle 1.05933e-14 -3.12888e-14 5.43245e-30
lhumerus 67.85 -29.9457 50.2505
lradius 57.8612 -0 0
lwrist 1.72356 0 0
lhand -15.6572 35.7096 -0.0573175
lfingers 7.12502 -0 0
lthumb 10.5302 65.4109 -0.0577142
rclavicle 1.05933e-14 -3.12888e-14 5.43245e-30
rhumerus -43.075 28.6742 -78.0433
rradius 96.2453 -0 0
rwrist -41.8159 0 0
rhand -11.3297 -42.7574 0.0565425
rfingers 7.12502 -0 0
rthumb 14.699 -72.1605 0.0686249
1945
root 4.58479 13.8463 28.4026 -58.8774 79.4075 -63.6591
lfemur -63.0715 12.6211 -14.912
ltibia 65.9392 -0 0
lfoot -6.34331 2.77732 -0.167232
ltoes -32.1279 0 0
rfemur -7.44745 -5.78979 21.0595
rtibia 61.8796 -0 0
rfoot -27.3288 -31.2231 0.110293
rtoes -26.9696 0 0
lowerback 13.5553 3.38605 5.12946
upperback -0.647032 5.78787 3.92593
thorax -8.23816 2.72811 0.186619
lowerneck -0.733327 14.4275 6.72107
upperneck 4.5331 19.6276 -7.71147
head 3.19993 9.76342 -2.82729
lclavicle 1.24603e-14 -3.31335e-14 5.67915e-30
lhumerus 68.6441 -30.7016 48.8357
lradius 60.9083 -0 0
lwrist 2.43761 0 0
lhand -15.8451 35.9031 -0.0599216
lfingers 7.12502 -0 0
lthumb 10.3489 65.6128 -0.0603363
rclavicle 1.24603e-14 -3.31335e-14 5.67915e-30
rhumerus -42.7369 29.6046 -78.008
rradius 96.6595 -0 0
rwrist -42.4012 0 0
rhand -10.9859 -42.653 0.0591121
rfingers 7.12502 -0 0
rthumb 15.03 -72.029 0.0717436
1946
root 4.38 13.8662 28.4509 -68.078 80.1901 -72.9347
lfemur -63.2229 12.5289 -16.0688
ltibia 65.5744 -0 0
lfoot -6.56705 3.24694 -0.172813
ltoes -32.0463 0 0
rfemur -8.05308 -5.77363 21.5499
rtibia 62.0167 -0 0
rfoot -27.6272 -31.4552 0.113972
rtoes -26.9441 0 0
lowerback 13.6539 3.20255 5.2134
upperback -0.621673 5.57347 3.97114
thorax -8.27008 2.62345 0.226569
lowerneck -0.7841 14.3469 6.66561
upperneck 4.39656 19.5126 -7.77947
head 3.1549 9.70497 -2.84995
lclavicle 1.43597e-14 -3.50102e-14 5.86844e-30
lhumerus 69.4806 -31.4529 47.3725
lradius 64.0082 -0 0
lwrist 3.16402 0 0
lhand -16.0362 36.1 -0.0619197
lfingers 7.12502 -0 0
lthumb 10.1645 65.8183 -0.0623483
rclavicle 1.43597e-14 -3.50102e-14 5.86844e-30
rhumerus -42.389 30.551 -77.9653
rradius 97.0808 -0 0
rwrist -42.9966 0 0
rhand -10.6361 -42.5469 0.0610838
rfingers 7.12502 -0 0
rthumb 15.3668 -71.8952 0.0741366
1947
root 4.17272 13.8864 28.4999 -78.6838 80.6843 -83.6163
lfemur -63.374 12.4325 -17.2391
ltibia 65.2051 -0 0
lfoot -6.79354 3.7223 -0.176594
ltoes -31.9637 0 0
rfemur -8.66588 -5.75202 22.046
rtibia 62.1555 -0 0
rfoot -27.9292 -31.6902 0.116464
rtoes -26.9183 0 0
lowerback 13.7535 3.01668 5.29802
upperback -0.596188 5.35643 4.01679
thorax -8.30245 2.51755 0.267062
lowerneck -0.835389 14.2654 6.60958
upperneck 4.25861 19.396 -7.84796
head 3.10935 9.6458 -2.87283
lclavicle 1.62821e-14 -3.69097e-14 5.99667e-30
lhumerus 70.357 -32.1942 45.8664
lradius 67.1458 -0 0
lwrist 3.89926 0 0
lhand -16.2297 36.2992 -0.0632735
lfingers 7.12502 -0 0
lthumb 9.97784 66.0262 -0.0637114
rclavicle 1.62821e-14 -3.69097e-14 5.99667e-30
rhumerus -42.0326 31.5086 -77.9148
rradius 97.5072 -0 0
rwrist -43.5992 0 0
rhand -10.282 -42.4395 0.0624197
rfingers 7.12502 -0 0
rthumb 15.7077 -71.7598 0.0757579
1948
root 3.96394 13.9067 28.5492 -90.1237 80.8304 -95.1326
lfemur -63.5241 12.3324 -18.417
ltibia 64.8331 -0 0
lfoot -7.0217 4.20109 -0.178503
ltoes -31.8805 0 0
rfemur -9.28286 -5.72492 22.5454
rtibia 62.2952 -0 0
rfoot -28.2334 -31.9269 0.117723
rtoes -26.8923 0 0
lowerback 13.8535 2.82931 5.38292
upperback -0.570703 5.13781 4.06265
thorax -8.33514 2.4109 0.307903
lowerneck -0.886947 14.1832 6.55324
upperneck 4.11991 19.2784 -7.9166
head 3.06351 9.58618 -2.89582
lclavicle 1.82185e-14 -3.88229e-14 6.06141e-30
lhumerus 71.27 -32.9206 44.3235
lradius 70.306 -0 0
lwrist 4.63981 0 0
lhand -16.4245 36.4999 -0.0639569
lfingers 7.12502 -0 0
lthumb 9.78983 66.2357 -0.0643995
rclavicle 1.82185e-14 -3.88229e-14 6.06141e-30
rhumerus -41.6687 32.4728 -77.8562
rradius 97.9367 -0 0
rwrist -44.2061 0 0
rhand -9.92545 -42.3312 0.0630941
rfingers 7.12502 -0 0
rthumb 16.051 -71.6234 0.0765764
1949
root 3.75467 13.9271 28.5986 -101.494 80.606 -106.58
lfemur -63.6724 12.2291 -19.5971
ltibia 64.4602 -0 0
lfoot -7.2504 4.68104 -0.178503
ltoes -31.7971 0 0
rfemur -9.90102 -5.6924 23.0457
rtibia 62.4353 -0 0
rfoot -28.5384 -32.1642 0.117723
rtoes -26.8662 0 0
lowerback 13.9534 2.64135 5.46767
upperback -0.545343 4.91865 4.10851
thorax -8.36797 2.30402 0.3489
lowerneck -0.938525 14.1007 6.49686
upperneck 3.98112 19.1604 -7.98504
head 3.01759 9.5264 -2.91881
lclavicle 2.01594e-14 -4.07407e-14 6.06141e-30
lhumerus 72.216 -33.6276 42.7505
lradius 73.4738 -0 0
lwrist 5.38212 0 0
lhand -16.6199 36.7011 -0.0639569
lfingers 7.12502 -0 0
lthumb 9.60137 66.4456 -0.0643995
rclavicle 2.01594e-14 -4.07407e-14 6.06141e-30
rhumerus -41.2988 33.439 -77.7895
rradius 98.3673 -0 0
rwrist -44.8146 0 0
rhand -9.56799 -42.2228 0.0630941
rfingers 7.12502 -0 0
rthumb 16.3952 -71.4866 0.0765764
